<svg width="65" height="56" viewBox="0 0 65 56" fill="none" xmlns="http://www.w3.org/2000/svg">
<path d="M65 38C65 47.9411 56.9411 56 47 56L20 56C17.2386 56 15 53.7614 15 51L15 17C15 11.4772 19.4772 7 25 7L60 7C62.7614 7 65 9.23858 65 12L65 38Z" fill="#E8F5E9"/>
<path d="M26.9164 19.0109C26.6044 19.0109 26.3507 18.7576 26.3507 18.4452V17.4839C26.3507 17.1719 26.604 16.9182 26.9164 16.9182C27.2284 16.9182 27.4821 17.1715 27.4821 17.4839V18.4452C27.4821 18.7576 27.2284 19.0109 26.9164 19.0109Z" fill="#103E13"/>
<path d="M24.5381 19.0109C24.2261 19.0109 23.9724 18.7576 23.9724 18.4452V17.4839C23.9724 17.1719 24.2257 16.9182 24.5381 16.9182C24.8501 16.9182 25.1038 17.1715 25.1038 17.4839V18.4452C25.1034 18.7576 24.8505 19.0109 24.5381 19.0109Z" fill="#103E13"/>
<path d="M22.16 19.0109C21.848 19.0109 21.5944 18.7576 21.5944 18.4452V17.4839C21.5944 17.1719 21.8476 16.9182 22.16 16.9182C22.4721 16.9182 22.7257 17.1715 22.7257 17.4839V18.4452C22.7257 18.7576 22.4725 19.0109 22.16 19.0109Z" fill="#103E13"/>
<path d="M26.9164 22.9421C26.6044 22.9421 26.3507 22.6889 26.3507 22.3765V21.4155C26.3507 21.1035 26.604 20.8499 26.9164 20.8499C27.2284 20.8499 27.4821 21.1031 27.4821 21.4155V22.3765C27.4821 22.6889 27.2284 22.9421 26.9164 22.9421Z" fill="#103E13"/>
<path d="M24.5381 22.9421C24.2261 22.9421 23.9724 22.6889 23.9724 22.3765V21.4155C23.9724 21.1035 24.2257 20.8499 24.5381 20.8499C24.8501 20.8499 25.1038 21.1031 25.1038 21.4155V22.3765C25.1034 22.6889 24.8505 22.9421 24.5381 22.9421Z" fill="#103E13"/>
<path d="M22.16 22.9421C21.848 22.9421 21.5944 22.6889 21.5944 22.3765V21.4155C21.5944 21.1035 21.8476 20.8499 22.16 20.8499C22.4721 20.8499 22.7257 21.1031 22.7257 21.4155V22.3765C22.7257 22.6889 22.4725 22.9421 22.16 22.9421Z" fill="#103E13"/>
<path d="M26.9164 26.8734C26.6044 26.8734 26.3507 26.6202 26.3507 26.3078V25.3464C26.3507 25.0344 26.604 24.7808 26.9164 24.7808C27.2284 24.7808 27.4821 25.034 27.4821 25.3464V26.3078C27.4821 26.6202 27.2284 26.8734 26.9164 26.8734Z" fill="#103E13"/>
<path d="M24.5381 26.8734C24.2261 26.8734 23.9724 26.6202 23.9724 26.3078V25.3464C23.9724 25.0344 24.2257 24.7808 24.5381 24.7808C24.8501 24.7808 25.1038 25.034 25.1038 25.3464V26.3078C25.1034 26.6202 24.8505 26.8734 24.5381 26.8734Z" fill="#103E13"/>
<path d="M22.16 26.8734C21.848 26.8734 21.5944 26.6202 21.5944 26.3078V25.3464C21.5944 25.0344 21.8476 24.7808 22.16 24.7808C22.4721 24.7808 22.7257 25.034 22.7257 25.3464V26.3078C22.7257 26.6202 22.4725 26.8734 22.16 26.8734Z" fill="#103E13"/>
<path d="M26.9164 30.8039C26.6044 30.8039 26.3507 30.5506 26.3507 30.2382V29.2769C26.3507 28.9648 26.604 28.7112 26.9164 28.7112C27.2284 28.7112 27.4821 28.9644 27.4821 29.2769V30.2382C27.4821 30.5506 27.2284 30.8039 26.9164 30.8039Z" fill="#103E13"/>
<path d="M24.5381 30.8039C24.2261 30.8039 23.9724 30.5506 23.9724 30.2382V29.2769C23.9724 28.9648 24.2257 28.7112 24.5381 28.7112C24.8501 28.7112 25.1038 28.9644 25.1038 29.2769V30.2382C25.1034 30.5506 24.8505 30.8039 24.5381 30.8039Z" fill="#103E13"/>
<path d="M22.16 30.8039C21.848 30.8039 21.5944 30.5506 21.5944 30.2382V29.2769C21.5944 28.9648 21.8476 28.7112 22.16 28.7112C22.4721 28.7112 22.7257 28.9644 22.7257 29.2769V30.2382C22.7257 30.5506 22.4725 30.8039 22.16 30.8039Z" fill="#103E13"/>
<path d="M26.9164 34.7349C26.6044 34.7349 26.3507 34.4816 26.3507 34.1692V33.2083C26.3507 32.8962 26.604 32.6426 26.9164 32.6426C27.2284 32.6426 27.4821 32.8958 27.4821 33.2083V34.1692C27.4821 34.4812 27.2284 34.7349 26.9164 34.7349Z" fill="#103E13"/>
<path d="M24.5381 34.7349C24.2261 34.7349 23.9724 34.4816 23.9724 34.1692V33.2083C23.9724 32.8962 24.2257 32.6426 24.5381 32.6426C24.8501 32.6426 25.1038 32.8958 25.1038 33.2083V34.1692C25.1034 34.4812 24.8505 34.7349 24.5381 34.7349Z" fill="#103E13"/>
<path d="M22.16 34.7349C21.848 34.7349 21.5944 34.4816 21.5944 34.1692L21.5948 33.2083C21.5948 32.8962 21.848 32.6426 22.1604 32.6426C22.4725 32.6426 22.7261 32.8958 22.7261 33.2083V34.1692C22.7257 34.4812 22.4725 34.7349 22.16 34.7349Z" fill="#103E13"/>
<path d="M6.00047 38.6471C6.00047 38.9592 6.25372 39.2128 6.56615 39.2128H41.0139C41.3259 39.2128 41.5796 38.9596 41.5796 38.6471C41.5796 38.3351 41.3263 38.0815 41.0139 38.0815H39.9682V21.8402C39.9682 21.5281 39.715 21.2745 39.4025 21.2745L30.1668 21.2749V9.56576C30.1668 9.36774 30.0635 9.18471 29.8946 9.08214C29.7262 8.97919 29.5156 8.97287 29.3404 9.06399L18.8401 14.531C18.6527 14.6284 18.5359 14.8217 18.5359 15.0327V25.2604H8.37388C8.06186 25.2604 7.8082 25.5137 7.8082 25.8261V38.0816H6.56489C6.25287 38.0812 6 38.3344 6 38.6468L6.00047 38.6471ZM30.167 29.8422H38.8374V38.0819L30.167 38.0815V29.8422ZM30.167 25.9113H38.8374V28.7113L30.167 28.7109V25.9113ZM30.167 22.4056H38.8374V24.7808H30.167V22.4056ZM19.6667 15.3762L29.0353 10.4982V38.081H19.6667V15.3762ZM11.7359 33.5635C11.7359 32.3895 12.666 31.4341 13.8096 31.4341C14.9531 31.4341 15.8837 32.3891 15.8837 33.5635V38.0817H11.7359V33.5635ZM8.93952 26.3916H18.5358V38.0815H17.015V33.5633C17.015 31.7657 15.5776 30.303 13.8096 30.303C12.0424 30.303 10.605 31.7653 10.605 33.5633V38.0815H8.93952V26.3916Z" fill="#103E13"/>
</svg>
